<svg width="220" height="158" xmlns="http://www.w3.org/2000/svg" xml:space="preserve" version="1.1">
   <path id="svg_2" fill="#00BCFF" d="m217.8,79.70021c0,39.6 -48.3,71.7 -107.8,71.7c-59.5,0 -107.8,-32.1 -107.8,-71.7c0,-39.6 48.3,-71.8 107.8,-71.8c59.5,0.1 107.8,32.2 107.8,71.8l0,0zm0,0" class="st1"/>
   <path id="svg_3" fill="#FFFFFF" d="m215.85,76.60021c-29.5,-4.8 -66.3,11 -70.7,12.7l-2.4,1l1,-2.4c1.7,-4.8 2.7,-18.2 2.1,-28.1c-0.7,-10 3.1,-19.6 4.8,-24l0.3,-1c1.4,-3.8 3.1,-3.8 5.1,-3.4c0.7,0 1.4,0.4 2.1,0.4c3.1,0 6.9,-1.4 9.6,-2.8c1.4,-0.7 2.7,-1.4 4.4,-1.4c1,-0.3 2.1,-0.3 2.8,-0.7c1,-0.3 2.1,-0.7 3.1,-0.7c3.8,-0.3 6.5,-1 6.5,-3.8c0,-0.3 0,-1 -0.7,-1.4c-0.7,-0.3 -1.7,-0.7 -4.8,0l-0.3,0c-1.4,0.4 -4.5,1 -1.7,-1.4c0,-0.4 0.3,-0.4 0.3,-0.4c1,-0.7 2.1,-2.4 2.8,-3.4c0.3,-0.3 0.7,-1 0.3,-1.7c-0.3,-2.1 -3.4,-4.1 -6.9,-6.2c-0.7,-0.3 -1.4,-1 -2.1,-1.4c-1.7,-1.4 -5.8,-4.5 -7.6,-2.8c-2.4,2.1 -11.7,11 -17.2,17.2c-5,5.7 -9.1,12.1 -12.4,18.9l-1.4,3.1c-3.1,6.9 -7.9,17.5 -12.7,28.8l-2.1,5.1c-0.3,0.7 -0.3,1 -0.7,1.7c-4.1,9.3 -9.6,20.9 -5.8,27.1c1.7,2.7 5.1,4.5 10.3,4.8c31.9,2.7 39.8,2.1 58.4,-0.4c3.4,-0.3 6.5,-1 10,-1.7c1.4,-0.3 2.7,-0.7 4.1,-0.7c1,0 1.7,0 2.8,0.3c1.7,0.7 2.4,1.7 3.1,3.1l0.7,1l1,-1c5.8,-6.5 9.9,-13.7 12.4,-21.3c1,-4.5 1.4,-8.9 1.7,-11l0,-2.4l-0.2,0l0,0.3zm-116.4,0c-0.7,-1.7 -1.7,-3.4 -2.1,-5.1c-4.8,-11.7 -9.6,-22.3 -12.7,-29.2l-1.4,-2.8c-3.8,-7.9 -7.5,-14.1 -12.4,-18.9c-5.5,-5.8 -14.7,-15.1 -17.2,-17.2c-2.1,-1.7 -6.2,1.7 -7.5,2.8c-0.7,0.3 -1.4,1 -2.1,1.4c-3.4,2.1 -6.5,4.1 -6.9,6.2c0,0.7 0,1.4 0.3,1.7c0.3,0.7 1,1.7 1.7,2.4c0.3,0.3 0.7,0.3 1,0.7l0.4,0c2.7,2.4 2.4,3.1 2.1,2.8c-1.4,-0.7 -2.4,-1 -3.4,-1l-0.3,0c-3.4,-0.7 -4.5,-0.3 -5.1,0c-0.7,0.3 -0.7,1 -0.7,1.4c0,2.7 3.1,3.4 6.9,3.8c1,0 2.1,0.3 3.1,0.7c1,0.4 1.7,0.7 2.8,0.7c1.4,0.3 3.1,0.7 4.4,1.4c2.8,1.4 6.5,3.1 9.6,2.7c0.7,0 1.4,0 2.1,-0.3c2.1,-0.3 3.8,-0.3 5.1,3.4l0.3,1c1.7,4.4 5.5,14.1 4.8,24c-0.7,9.9 0.3,23.3 2.1,28.1l1,2.4l-2.4,-1c-3.8,-1.7 -39.1,-17.2 -68.3,-12.4l-0.7,0l0,5.1c1,9.6 5.1,19.2 12.7,27.8l0.7,1l0.7,-1c0.7,-1 1.4,-1.4 2.4,-2.1c2.4,-0.7 3.8,-0.4 6.9,0.3c3.4,0.7 6.9,1.4 10,1.7c10.3,1.4 17.2,2.1 26.4,2.1c7.9,0 17.5,-0.7 31.9,-1.7c5.1,-0.3 8.6,-2.1 10.3,-4.8c3.8,-6.5 -1.4,-17.8 -5.8,-27.5c-0.3,0.4 -0.3,-0.2 -0.7,-0.6l0,0zm0,0" class="st2"/>
   <path id="svg_4" fill="#0A0080" d="m198.50001,114.40021c-0.7,0.3 -1,1 -1.7,1.4l-0.4,0.3c-0.7,0.3 -1,1 -1.7,1.4c-0.7,0.7 -1.4,1 -2.1,1.7c-0.7,0.3 -1.4,1 -1.7,1.4l-0.3,0.4c-0.7,0.3 -1.4,1 -1.7,1.4c0,0 -0.3,0 -0.3,0.4c-0.7,0.3 -1.4,1 -2.1,1.4c-0.7,0.4 -1.4,1 -2.1,1.4l-0.3,0.3l-2.1,1c0,0 -0.3,0 -0.3,0.3c-1.7,1 -3.1,1.7 -4.8,2.8c-0.3,0 -0.3,0.3 -0.3,0.3l-2.1,1c-0.4,0 -0.4,0.3 -0.4,0.3c-1.7,0.7 -3.4,1.7 -5.1,2.4c-0.3,0 -0.3,0.3 -0.7,0.3c-0.7,0.4 -1.4,0.7 -2.1,0.7c-0.3,0 -0.3,0.3 -0.7,0.3c-0.7,0.3 -1.7,0.7 -2.7,1c-1,0.3 -1.7,0.7 -2.8,1c-0.3,0 -0.3,0 -0.7,0.3c-0.7,0.4 -1.4,0.4 -2.1,0.7c-0.4,0 -0.4,0.3 -0.7,0.3c-0.7,0.3 -1.7,0.3 -2.4,0.7l-0.3,0c-1,0.4 -1.7,0.7 -2.8,0.7c-0.3,0 -0.3,0 -0.7,0.3c-0.7,0.3 -1.4,0.3 -2.4,0.7c-0.3,0 -0.7,0 -0.7,0.4c-0.7,0.3 -1.7,0.3 -2.4,0.7l-0.7,0c-1,0.3 -2.1,0.3 -3.1,0.7l-0.7,0c-0.7,0.4 -1.7,0.4 -2.4,0.4c-0.3,0 -0.7,0 -1,0.3c-0.7,0 -1.7,0.3 -2.4,0.3l-0.7,0c-1,0.3 -2.1,0.3 -3.1,0.3l-0.7,0c-0.7,0 -1.7,0.3 -2.8,0.3l-1,0c-0.7,0 -1.7,0.4 -2.4,0.4l-1,0c-1,0 -2.1,0.3 -3.1,0.3l-18.5,0c-1,0 -2.1,0 -3.1,-0.3l-0.3,0c-1,0 -2.1,0 -3.1,-0.4l-1,0c-0.7,0 -1.7,0 -2.4,-0.3l-1,0c-1,0 -2.1,-0.3 -3.1,-0.3l-0.3,0c-1,0 -1.7,-0.3 -2.8,-0.3l-1,0c-0.7,0 -1.7,-0.3 -2.4,-0.3l-0.6,0c-1,-0.4 -2.1,-0.4 -3.1,-0.7l-0.3,0c-0.7,-0.3 -1.7,-0.3 -2.4,-0.7c-0.3,0 -0.7,0 -1,-0.3c-0.7,-0.4 -1.4,-0.4 -2.1,-0.7c-0.3,0 -0.3,0 -0.7,-0.3c-1,-0.3 -2.1,-0.3 -2.8,-0.7l-0.7,0c-0.7,-0.4 -1.7,-0.4 -2.4,-0.7c-0.4,0 -0.7,-0.3 -0.7,-0.3c-0.7,-0.3 -1.4,-0.3 -2.1,-0.7c-0.3,0 -0.3,0 -0.7,-0.4c-1,-0.3 -1.7,-0.7 -2.8,-1c-0.3,0 -0.3,0 -0.7,-0.3c-0.7,-0.4 -1.4,-0.7 -2.1,-0.7c-0.3,0 -0.7,-0.3 -0.7,-0.3c-0.7,-0.3 -1.4,-0.7 -2.1,-0.7c-0.3,0 -0.3,0 -0.7,-0.4c-0.7,-0.3 -1.7,-0.7 -2.7,-1c-0.3,0 -0.3,-0.3 -0.7,-0.3l-2.1,-1c-0.3,0 -0.3,-0.3 -0.7,-0.3l-2.1,-1c0,0 -0.4,0 -0.4,-0.3c-0.7,-0.3 -1.7,-0.7 -2.4,-1.4c-0.3,0 -0.3,-0.3 -0.7,-0.3c-0.7,-0.3 -1.4,-0.7 -1.7,-1c-0.4,0 -0.4,-0.3 -0.7,-0.3l-2.1,-1c0,0 -0.3,0 -0.3,-0.4c-0.7,-0.3 -1.4,-1 -2.1,-1.4c-0.4,0 -0.4,-0.4 -0.7,-0.4c-0.7,-0.3 -1,-0.7 -1.7,-1c-0.3,0 -0.3,-0.3 -0.7,-0.3c-0.7,-0.4 -1.4,-0.7 -1.7,-1.4c0,0 -0.3,0 -0.3,-0.3c-0.7,-0.4 -1.4,-1 -2.1,-1.4c-0.3,0 -0.3,-0.3 -0.3,-0.3c-0.3,-0.4 -1,-0.7 -1.4,-1.4c-0.3,0 -0.3,-0.3 -0.7,-0.3c-0.7,-0.4 -1,-1 -1.7,-1.4c-0.7,-0.7 -1.4,-1 -1.7,-1.7c-0.3,0 -0.3,-0.3 -0.3,-0.3l-1.7,-1.7l-0.3,-0.4c0.7,-1 1,-1.4 1.4,-1.7c1.4,-0.7 2.1,-0.3 5.1,0.4c3.4,0.7 6.9,1.4 10.3,1.7c18.5,2.4 26.8,3.1 59.1,0.3c6.2,-0.7 10.3,-2.8 12.4,-6.5c0.3,-0.3 0.3,-0.7 0.7,-1.4c0.4,0.3 0.4,0.7 0.7,1.4c2.1,3.8 6.5,5.8 12.4,6.5c32.3,2.7 40.5,2.1 59,-0.3c3.4,-0.4 6.9,-1 10.3,-1.7c3.1,-0.7 3.8,-0.7 5.1,-0.4c0.7,0.4 1,0.7 2.1,2.8c2.3,0.6 2.3,0.6 1.9,1c0,-0.4 0,-0.4 0,0l0,0zm2.8,-70.4l0.7,0.7c0.7,0.7 1,1.4 1.7,2.1c0.3,0.4 0.3,0.4 0.3,0.7c0.3,0.3 0.7,0.7 0.7,1c0.3,0.4 0.3,0.4 0.3,0.7c0.4,0.3 0.7,0.7 0.7,1c0.3,0.4 0.3,0.4 0.3,0.7c0.7,1.4 1.7,2.4 2.4,3.8c0,0.3 0.4,0.3 0.4,0.7c0.3,0.4 0.3,0.7 0.7,1c0,0.3 0.3,0.3 0.3,0.7c0.3,0.4 0.3,0.7 0.7,1c0,0.3 0.3,0.3 0.3,0.7c0.3,0.7 0.7,1.7 1,2.4c0,0.3 0,0.3 0.4,0.3c0,0.3 0.3,0.7 0.3,1c0,0.3 0.3,0.7 0.3,0.7c0,0.3 0.3,0.7 0.3,1c0,0.3 0.3,0.7 0.3,0.7c0,0.3 0.4,0.7 0.4,1c0,0.3 0,0.7 0.3,0.7c0.3,0.7 0.3,1.4 0.3,2.1c0,0.3 0,0.7 0.3,0.7c0,0.3 0,0.7 0.3,1l0,2.1c-9.6,-1.4 -24.7,-1.4 -46.3,4.5c-7.5,3.1 -14.4,5.1 -21.6,8.2c1.4,-6.9 1.7,-17.5 1,-25.4c-0.7,-8.9 2.8,-17.8 4.8,-22.7l0.3,-1c0.4,-0.7 0.4,-1.4 1,-1.7l1,0c0.7,0 1.7,0.3 2.4,0.3c4.5,0.4 9.6,-2.4 11,-3.1c1,-0.7 2.4,-1 3.8,-1.4c1,-0.3 2.1,-0.7 3.4,-1c0.7,-0.3 1.4,-0.3 2.4,-0.3c1,0 2.4,-0.3 3.8,-0.7c7.6,4.8 14.1,10 19.3,15.8l0,0zm-36.4,-39.8c1,-0.7 3.4,0.3 6.5,2.7c0.7,0.7 1.4,1 2.1,1.4c2.1,1.4 6.2,3.8 6.5,5.5c0,0.3 0,0.7 -0.3,1l0,0.3c-0.7,1 -1.7,2.8 -2.4,3.1l-0.7,0.7c-1.4,1.4 -3.4,2.8 -4.1,2.8c-2.1,-0.3 -3.4,-0.7 -5.1,-1.4c1,-4.1 2.4,-3.1 5.1,-1.7c0,-0.7 -0.3,-1 -0.3,-1.7l2.1,-1l-2.4,-0.3c-0.3,-1.7 -0.3,-3.1 -0.3,-4.8c-0.7,1 -0.7,2.1 -1,2.8c-0.3,0.7 -1,1.4 -1.4,1.7l-1.4,-1.4c-0.7,-0.7 -1.7,-1.4 -2.4,-1.7c0,0.3 -0.3,0.3 -0.3,0.3c2.4,3.4 2.4,4.1 -0.3,7.2c-2.4,2.7 -4.8,4.8 -7.2,7.2c1.7,1 3.8,0.3 6.2,-2.1c3.1,-3.4 3.1,-3.4 7.2,-1.7l0.7,0.3c1.7,0.7 2.7,-0.3 4.4,-1c1,-0.3 2.4,-1 3.4,-1l0.4,0c2.4,-0.4 3.8,-0.4 4.1,0c0,0 0.3,0.3 0.3,0.7c0,1.7 -1.4,2.4 -5.8,2.8c-1,0 -2.1,0.3 -3.4,0.7c-1,0.3 -1.7,0.7 -2.8,0.7c-1.7,0.4 -3.1,0.7 -4.4,1.7c-2.8,1.4 -6.2,2.8 -8.9,2.8c-0.7,0 -1.4,0 -1.7,-0.3c-2.4,-0.3 -4.4,-0.3 -6.2,4.1l-0.3,1c-1.7,4.8 -5.5,14.4 -5.1,24.4c0.7,10 -0.4,23.4 -2.1,27.8l-2.4,4.5l4.5,-2.1c0.3,-0.4 39.5,-17.5 70,-12.7l0,1.4c-0.3,2.8 -0.7,6.9 -1.7,11c-2.1,7.6 -6.2,14.8 -12,21c-0.7,-1.7 -1.7,-2.8 -3.8,-3.4c-1,-0.4 -2.1,-0.7 -3.1,-0.7c-1.4,0 -3.1,0.3 -4.4,0.7c-3.4,0.7 -6.5,1.4 -10,1.7c-18.2,2.4 -26.4,3.1 -58.4,0.3c-4.8,-0.3 -7.9,-2.1 -9.6,-4.5c-3.4,-5.8 1.7,-17.2 5.8,-26.4c1,-2.4 2.1,-4.8 3.1,-6.9c5.1,-12.7 10.3,-24 13.4,-30.6l0.7,-1.4c3.8,-7.9 7.5,-13.7 12,-18.9c5.5,-5.6 14.8,-14.6 17.2,-16.6l0,0zm-54.9,6.2c13.7,0 26.8,1.7 38.4,4.8c-1.4,1.4 -2.4,2.4 -3.4,3.8c-5.3,5.9 -9.6,12.6 -12.7,19.9l-0.7,1.4c-3.1,6.9 -8.6,18.2 -13.4,30.9c-0.7,2.1 -1.7,4.1 -2.8,6.5c-2.4,5.1 -4.8,10.7 -6.2,16.1c-1.4,-5.5 -4.1,-11 -6.2,-16.1l-2.8,-6.5c-5.1,-12.7 -10.3,-24 -13.4,-30.9l-0.7,-1.4c-3.8,-8.2 -7.9,-14.4 -12.7,-19.9c-1,-1 -2.1,-2.1 -3.1,-3.4c11.9,-3.5 25.2,-5.2 39.7,-5.2l0,0zm-75.6,11.3c0.3,-0.3 2.1,-0.3 4.1,0l0.7,0l3.1,1c1.7,1 2.7,1.7 4.4,1c0.3,0 0.7,-0.3 0.7,-0.3c4.1,-1.4 4.1,-1.4 7.2,1.7c2.4,2.7 4.4,3.1 6.2,2.1c-2.4,-2.4 -5.1,-4.8 -7.2,-7.2c-2.7,-3.1 -2.7,-4.1 -0.3,-7.2c0,-0.4 -0.3,-0.4 -0.3,-0.4c-0.7,0.7 -1.7,1 -2.4,1.7l-1.4,1.4c-0.7,-0.7 -1.4,-1 -1.4,-1.7c-0.3,-0.7 -0.3,-1.7 -1,-2.7c0,1.4 -0.3,3.1 -0.3,4.8l-2.4,0.7l2.1,1l-0.3,1.4c2.4,-1.7 4.1,-2.7 5.1,1.7c-1.7,0.7 -3.4,0.7 -5.1,1.4c-0.7,0.3 -2.8,-1.4 -4.5,-2.8c0,-0.3 -0.3,-0.3 -0.3,-0.3l-1,-1c-0.7,-0.7 -1,-1.7 -1.4,-2.1l0,-0.3c-0.3,-0.3 -0.3,-0.7 -0.3,-1c0.3,-1.7 4.5,-4.5 6.5,-5.5c0.7,-0.3 1.4,-1 2.1,-1.4c2.8,-2.4 5.5,-3.8 6.5,-2.8c2.4,2.1 11.3,11 17.2,16.8c4.5,4.8 8.2,11 12,18.9l0.7,1.4c3.1,6.9 8.6,18.2 13.4,30.5c0.7,2.1 1.7,4.5 3.1,6.9c4.1,9.3 9.3,20.6 5.8,26.4c-1.4,2.7 -4.8,4.1 -9.6,4.5c-31.9,2.8 -39.8,2.1 -58.4,-0.3c-3.4,-0.3 -6.5,-1 -10,-1.7c-3.1,-0.7 -4.8,-1 -7.5,-0.3c-1.4,0.3 -2.1,1.4 -2.8,2.4c-6.9,-8.2 -11.3,-17.5 -12.4,-27.5l0,-4.5c30.6,-5.1 67.6,12 68,12.4l4.5,2.1l-1.7,-4.5c-1.7,-4.5 -2.8,-17.9 -2.1,-27.8c0.7,-9.9 -3.1,-19.6 -5.1,-24.4l-0.3,-1c-1.7,-4.5 -3.8,-4.5 -6.2,-4.1c-0.7,0 -1.4,0.3 -1.7,0.3c-2.8,0 -6.5,-1.4 -8.9,-2.7c-1.4,-0.7 -3.1,-1.4 -4.5,-1.7c-1,-0.3 -1.7,-0.3 -2.7,-0.7c-1,-0.3 -2.1,-0.7 -3.4,-0.7c-4.5,-0.7 -5.8,-1.4 -5.8,-2.8c-1,-0.8 -1,-1.1 -0.7,-1.1l0,0zm2.8,6.8c0.7,0.3 1.7,0.3 2.4,0.3c0.7,0 1.7,0.3 2.4,0.3c1,0.3 2.1,0.7 3.4,1c1.4,0.3 2.4,0.7 3.8,1.4c1.4,0.7 6.5,3.4 11,3.1c0.7,0 1.7,0 2.4,-0.3l1,0c0,0 0.3,0.3 1,1.7l0.3,1c1.7,4.8 5.5,13.7 4.8,22.7c-0.7,7.9 -0.4,18.5 1,25.4c-10.3,-4.5 -39.8,-15.1 -65.9,-11c0.3,-2.7 0.7,-5.1 1.4,-7.9l0,-0.3c0,-0.4 0.3,-0.7 0.3,-1c0,-0.3 0.3,-0.7 0.3,-1l0,-0.3c0.7,-2.1 1.7,-4.4 2.8,-6.5c0,0 0,-0.3 0.3,-0.3c0,0 0,-0.3 0.3,-0.3c0.3,-0.3 0.3,-0.7 0.7,-1c5,-10.5 14.3,-19.4 26.3,-27l0,0zm149.3,-2.4c0.7,-1 1.4,-2.1 1.4,-3.4c0,-1.4 -0.7,-2.7 -1.7,-3.8c-1,-0.7 -2.1,-1 -3.4,-1c0,0 0,-0.4 0.4,-0.4c0.7,-1 1,-2.4 0.7,-3.8c-0.7,-3.4 -5.1,-6.2 -8.2,-8.2c-0.7,-0.3 -1.4,-0.7 -1.7,-1c-6.2,-5.1 -9.6,-4.5 -11.3,-3.1c-1.7,1.4 -5.8,5.5 -10.3,10c-13.1,-3.4 -27.5,-5.5 -42.2,-5.5c-15.4,0 -30.2,2.1 -43.6,5.8c-4.5,-4.5 -8.9,-8.6 -10.7,-10.3c-1.7,-1.4 -5.5,-2.4 -11.3,3.1c-0.3,0.3 -1,0.7 -1.7,1c-3.1,1.7 -7.6,4.5 -8.2,8.2c-0.3,1.4 0,2.8 0.7,3.8c0,0 0,0.4 0.4,0.4c-1.4,0 -2.4,0.3 -3.4,1c-1,1 -1.7,2.1 -1.7,3.8c0,2.1 0.7,3.1 1.7,4.1c-19.9,12.7 -32.3,30.9 -32.3,50.5l0,4.5c0,41.9 42.9,75.9 109.9,75.9c67.3,0 109.9,-34 109.9,-75.9l0,-4.1c-0.1,-20.3 -12.8,-38.5 -33.4,-51.6l0,0zm0,0" class="st0"/>
</svg>